<?xml version="1.0" standalone="no"?>
<!DOCTYPE svg PUBLIC "-//W3C//DTD SVG 20010904//EN"
 "http://www.w3.org/TR/2001/REC-SVG-20010904/DTD/svg10.dtd">
<svg version="1.0" xmlns="http://www.w3.org/2000/svg"
 width="500.000000pt" height="500.000000pt" viewBox="0 0 500.000000 500.000000"
 preserveAspectRatio="xMidYMid meet">

<g transform="translate(0.000000,500.000000) scale(0.100000,-0.100000)"
fill="#000000" stroke="none">
<path d="M2510 3476 c-25 -6 -72 -24 -105 -38 -33 -15 -96 -34 -139 -43 -121
-24 -186 -69 -223 -155 -17 -40 -19 -180 -4 -268 6 -32 13 -93 17 -137 7 -95
23 -133 74 -179 44 -39 115 -68 255 -102 114 -27 168 -30 243 -11 73 20 124
59 200 154 72 91 115 155 92 137 -8 -7 -35 -18 -60 -24 -25 -7 -55 -25 -68
-39 l-23 -26 22 55 c12 30 31 82 42 115 11 33 36 78 54 100 27 31 34 47 31 72
-4 31 -3 32 15 15 13 -11 10 -1 -10 33 -17 28 -55 93 -86 145 -30 52 -73 112
-94 132 -64 63 -153 87 -233 64z m-210 -145 c0 -6 -4 -12 -9 -15 -16 -10 -54
-90 -60 -126 -6 -30 -10 -35 -35 -35 -20 0 -31 -6 -36 -20 -6 -16 -8 -14 -13
12 -12 63 17 124 81 164 47 30 72 36 72 20z m337 -128 c120 -133 153 -174 153
-187 0 -7 -22 -40 -49 -74 -27 -33 -72 -99 -100 -146 -29 -47 -56 -88 -60 -91
-5 -2 -49 13 -99 35 -50 21 -124 49 -164 61 -40 12 -79 29 -87 38 -12 14 -12
14 -7 -5 8 -28 -21 -41 -43 -20 -13 14 -13 17 2 34 9 10 17 26 17 34 0 9 4 18
10 20 5 2 15 64 22 138 l13 135 80 39 c71 35 160 61 221 65 14 1 43 -24 91
-76z m-440 -280 c-3 -10 -5 -4 -5 12 0 17 2 24 5 18 2 -7 2 -21 0 -30z"/>
<path d="M2985 2420 c-4 -7 -3 -16 3 -22 14 -14 45 -2 40 15 -6 16 -34 21 -43
7z"/>
<path d="M2447 2404 c-4 -4 -7 -16 -7 -26 0 -10 -7 -18 -15 -18 -8 0 -15 -7
-15 -15 0 -8 7 -15 15 -15 11 0 15 -11 15 -41 0 -59 14 -79 55 -79 40 0 50 26
13 32 -19 2 -24 10 -26 45 -3 36 0 42 18 45 28 4 30 22 3 26 -13 2 -23 12 -25
24 -3 22 -19 33 -31 22z"/>
<path d="M1990 2340 c-27 -27 -27 -83 1 -111 24 -24 92 -24 97 1 2 11 -7 15
-35 15 -38 0 -38 0 -38 40 0 40 0 40 43 43 43 3 55 15 26 26 -31 12 -74 6 -94
-14z"/>
<path d="M2124 2346 c-3 -7 -4 -40 -2 -72 2 -47 7 -59 21 -62 14 -3 17 4 17
45 0 52 12 73 42 73 10 0 18 7 18 15 0 18 -31 20 -48 3 -9 -9 -12 -9 -12 0 0
17 -29 15 -36 -2z"/>
<path d="M2250 2255 c0 -87 3 -105 15 -105 11 0 15 11 15 42 0 33 3 39 12 30
13 -13 57 -16 74 -4 34 22 41 94 13 129 -14 16 -71 17 -87 1 -9 -9 -12 -9 -12
0 0 7 -7 12 -15 12 -12 0 -15 -18 -15 -105z m106 53 c3 -11 3 -31 0 -44 -10
-37 -57 -30 -71 10 -8 24 -6 31 13 47 26 21 48 16 58 -13z"/>
<path d="M2561 2334 c-43 -54 -10 -124 58 -124 47 0 75 28 75 75 0 47 -28 75
-75 75 -29 0 -42 -6 -58 -26z m84 -10 c34 -35 -3 -103 -42 -78 -24 15 -28 58
-8 78 9 9 20 16 25 16 5 0 16 -7 25 -16z"/>
<path d="M2803 2345 c-8 -23 3 -103 17 -120 15 -18 61 -20 78 -3 9 9 12 9 12
0 0 -7 7 -12 15 -12 12 0 15 15 15 75 0 60 -3 75 -15 75 -11 0 -15 -11 -15
-43 0 -50 -18 -81 -46 -75 -16 3 -20 13 -22 61 -2 42 -7 57 -18 57 -8 0 -17
-7 -21 -15z"/>
<path d="M2990 2285 c0 -60 3 -75 15 -75 12 0 15 15 15 75 0 60 -3 75 -15 75
-12 0 -15 -15 -15 -75z"/>
<path d="M2725 2240 c-4 -7 -3 -16 3 -22 14 -14 45 -2 40 15 -6 16 -34 21 -43
7z"/>
</g>
</svg>
